<svg xmlns="http://www.w3.org/2000/svg" width="32" height="32" viewBox="0 0 32 32" fill="none">
  <defs>
    <linearGradient id="scriptGradient" x1="0%" y1="0%" x2="100%" y2="100%">
      <stop offset="0%" style="stop-color:#4F46E5;stop-opacity:1" />
      <stop offset="100%" style="stop-color:#7C3AED;stop-opacity:1" />
    </linearGradient>
  </defs>
  
  <!-- Document background -->
  <rect x="4" y="2" width="24" height="28" rx="2" ry="2" fill="white" stroke="#E5E7EB" stroke-width="1"/>
  
  <!-- Code lines -->
  <rect x="7" y="6" width="3" height="1.5" fill="#10B981"/>
  <rect x="11" y="6" width="8" height="1.5" fill="#374151"/>
  <rect x="20" y="6" width="4" height="1.5" fill="#EF4444"/>
  
  <rect x="7" y="9" width="6" height="1.5" fill="#3B82F6"/>
  <rect x="14" y="9" width="10" height="1.5" fill="#374151"/>
  
  <rect x="9" y="12" width="4" height="1.5" fill="#F59E0B"/>
  <rect x="14" y="12" width="6" height="1.5" fill="#374151"/>
  <rect x="21" y="12" width="2" height="1.5" fill="#EF4444"/>
  
  <rect x="7" y="15" width="5" height="1.5" fill="#8B5CF6"/>
  <rect x="13" y="15" width="8" height="1.5" fill="#374151"/>
  
  <rect x="9" y="18" width="7" height="1.5" fill="#374151"/>
  <rect x="17" y="18" width="3" height="1.5" fill="#10B981"/>
  
  <rect x="7" y="21" width="4" height="1.5" fill="#EF4444"/>
  <rect x="12" y="21" width="9" height="1.5" fill="#374151"/>
  
  <!-- Cursor line -->
  <rect x="21" y="15" width="1" height="1.5" fill="#4F46E5" opacity="0.8"/>
  
  <!-- Play button overlay -->
  <circle cx="24" cy="25" r="4" fill="url(#scriptGradient)" opacity="0.9"/>
  <polygon points="22,23 22,27 27,25" fill="white"/>
</svg>